<svg version="1.1" xmlns="http://www.w3.org/2000/svg" x="0" y="0" viewBox="0 0 322 89.6" xml:space="preserve"><g><g><path fill="#FFFFFF" d="M321.6 54.2s-3.9.6-4 .6v-8.9h3.9v-8.5h-3.9v-4.9h-8.9v4.9H300V54c-.2.5-.8 1-2.4 1-.5 0-.6-.1-.6-.1s-.3-.4-.3-1.9V37.3h-8.9v4.3c-.2-.3-.4-.6-.7-.8-2.2-2.5-5.2-3.8-8.6-3.8h-.2c-2.1 0-4.2.6-6.1 1.8-1.3.8-2.5 2-3.3 3.2-.5-.8-1.1-1.6-1.8-2.2-2-1.8-4.5-2.7-7.4-2.7h-.3c-2.1 0-4.1.6-6 1.7-.7.4-1.3.9-1.8 1.5-.4-3.7-2.7-6.9-6.1-8.5-1.8-.9-3.8-1.3-6-1.3-3.2 0-6 .9-8.2 2.5-2.5 1.9-3.7 4.5-3.7 7.4 0 3.1 1.5 6 4.1 7.7l1.5.9h-6.4l-.1 3.3c0 2.1.6 4.2 1.8 6 1.2 1.7 2.9 3.1 4.9 3.9 1.9.8 4 1.2 6.3 1.2 3.4 0 6.2-.8 8.4-2.5.9-.7 1.7-1.5 2.2-2.3.2.4.5.7.8 1.1 2.1 2.5 5.1 3.8 8.5 3.8 1.8 0 3.5-.4 5-1.1 1.6-.8 3-1.9 4-3.3.1-.1.2-.3.3-.5.3.4.6.8.9 1.1 2.1 2.4 5.2 3.8 8.4 3.8h.5c4.1 0 7.9-2.3 9.9-5.8.4 1.1 1 2.1 1.7 2.9 1.2 1.3 3.4 2.9 7.2 2.9 1.2 0 2.2-.1 3.1-.3h8.4v-5.9c.2 1.4.8 2.7 1.5 3.6.9 1.2 2.7 2.6 5.8 2.6 1.4 0 2.5-.2 3.4-.5l2.4-.9-.5-7.9zm-85-14.4c.6-.5 1.5-.7 2.7-.7 1.1 0 2 .2 2.6.8.3.3.6.7.6 1.6v1.6c-.7-.2-1.5-.5-2.2-.6-2.4-.7-3.4-1.3-3.7-1.5-.2-.2-.3-.3-.3-.6s.2-.5.3-.6zm5.8 14.4c-.8.6-2 .7-2.9.7-1.5 0-2.6-.3-3.3-.9-.4-.3-.7-.7-.7-1.6v-2.3c.8.3 1.7.6 2.7.9 3 .8 4 1.5 4.2 1.7.1.1.2.2.3.5v.4c0 .2-.1.4-.3.6zm6-8.1c-.5-.5-1.1-.9-1.7-1.3h2.1c-.2.5-.3.9-.4 1.3zM207.7 40c-2.1-2-4.9-3-8.1-3h-.2c-2 0-3.9.5-5.7 1.4l.4-1h-12.6l-.9 3.4-.9-3.4H167l.2.6c-1.5-.6-3.1-.9-5-.9h-.2c-1.8 0-3.6.4-5.3 1-.2.1-.5.2-.7.3v-.2l-2.4-.8c-.8-.3-1.7-.4-2.6-.4-.8 0-1.6.1-2.4.4h-10.2V40c-.1-.1-.2-.2-.4-.3-2-1.7-4.6-2.6-7.7-2.6h-.2c-1.8 0-3.6.4-5.3 1-1.7.7-3.2 1.8-4.4 3.4-1.1 1.5-1.7 3.2-1.7 5.1V50h.7c-.4.7-.7 1.5-.9 2.3H112V30.8H99.9v32.4h23.3v-.8c1.5.8 3.1 1.2 4.9 1.2h.3c1 0 2-.2 2.9-.5v.1h18.9v-7.9c.2 2.2 1.3 4.3 3 5.8 1.9 1.6 4.1 2.5 6.8 2.5h.3c1 0 2-.2 2.9-.4v.1h10.7v-4.5l-.4-.7c-.1-.1-.3-.6-.3-2.1l2.5 7.3h9.7l2.6-7.8c.6 1.8 1.6 3.3 2.9 4.6 2.4 2.3 5.5 3.5 9.2 3.5 2.1 0 4-.4 5.7-1.2.7-.3 1.3-.6 1.8-1v1.9h11.9V29.4h-11.9V40zM0 48v17.8l43.4 23.8 43.4-23.8V48L43.4 71.9z"/><path class="st0" d="M0 0v45.8l43.4 23.8 43.4-23.8V0L43.4 23.9z"/><path d="M108.6 55.5h11.2v4.2h-16.5V34.2h5.3v21.3zm24.9 4.3c-.3-.5-.4-1.1-.5-1.7-1.2 1.4-3 2.1-4.8 2-1.9 0-3.4-.5-4.6-1.6-1.2-1-1.9-2.5-1.8-4.1 0-2 .8-3.6 2.2-4.6 1.5-1.1 3.7-1.6 6.5-1.6h2.3v-1.1c0-.9-.2-1.6-.7-2.1-.4-.5-1.2-.8-2.1-.8-.9 0-1.5.2-2 .6-.5.4-.7 1-.7 1.7h-5.1c0-1.1.3-2.1 1-3.1s1.7-1.7 2.9-2.2c1.3-.6 2.8-.8 4.2-.8 2.3 0 4.2.6 5.6 1.8 1.4 1.2 2.1 2.8 2.1 5v8.2c0 1.8.3 3.2.8 4.1v.3h-5.3zm-4.2-3.6c.8 0 1.4-.2 2.1-.5.6-.3 1.1-.8 1.4-1.3v-3.3h-1.9c-2.5 0-3.9.9-4 2.6v.3c0 .6.2 1.2.7 1.6.4.4 1 .7 1.7.6zm23.2-10.7c-.7-.1-1.3-.1-1.8-.1-1.9 0-3.2.7-3.8 2v12.4h-5.1v-19h4.8l.1 2.3c1-1.8 2.4-2.6 4.2-2.6.6 0 1.1.1 1.6.2v4.8zm12.9 14.3c-.3-.5-.4-1.1-.5-1.7-1.2 1.4-3 2.1-4.8 2-1.9 0-3.4-.5-4.6-1.6-1.2-1-1.9-2.5-1.8-4.1 0-2 .8-3.6 2.2-4.6 1.5-1.1 3.7-1.6 6.5-1.6h2.3v-1.1c0-.9-.2-1.6-.7-2.1-.4-.5-1.2-.8-2.1-.8-.9 0-1.5.2-2 .6-.5.4-.7 1-.7 1.7h-5.1c0-1.1.3-2.1 1-3.1s1.7-1.7 2.9-2.2c1.3-.5 2.7-.8 4.2-.8 2.4 0 4.2.6 5.6 1.8 1.4 1.2 2.1 2.8 2.1 5v8.2c0 1.8.3 3.2.8 4.1v.3h-5.3zm-4.2-3.6c.8 0 1.4-.2 2.1-.5.6-.3 1.1-.8 1.4-1.3v-3.3h-1.9c-2.5 0-3.9.9-4.1 2.6v.3c0 .6.2 1.2.7 1.6.5.4 1.1.7 1.8.6zm19.3-2.7 3.5-12.8h5.3l-6.4 19H178l-6.4-19h5.3l3.6 12.8zm19.6 6.6c-2.8 0-5.1-.8-6.8-2.6-1.8-1.7-2.6-4-2.6-6.8v-.5c0-1.9.4-3.6 1.1-5.1.7-1.4 1.8-2.7 3.1-3.5 1.4-.8 3-1.2 4.6-1.2 2.6 0 4.6.8 6.1 2.5s2.2 4 2.2 7V52h-12.1c.1 1.1.6 2.2 1.5 3 .9.8 2 1.2 3.1 1.1 2 0 3.5-.7 4.6-2.1l2.5 2.8c-.8 1.1-1.9 2-3.1 2.5-1.1.5-2.6.8-4.2.8zm-.5-15.6c-1 0-1.8.3-2.5 1-.7.8-1.1 1.8-1.2 2.9h7.1V48c0-1.1-.3-2-.9-2.6-.6-.6-1.5-.9-2.5-.9zm16.6 15.3h-5.1v-27h5.1v27zm29.9-6.3c0-1.4-.5-2.5-1.5-3.4s-2.8-1.6-5.5-2.3c-2.6-.8-4.6-1.6-5.8-2.4-1.6-1.1-2.6-2.9-2.6-4.9 0-2 .8-3.5 2.4-4.8 1.6-1.2 3.7-1.8 6.2-1.8 1.7 0 3.2.3 4.6 1 2.6 1.2 4.3 3.8 4.2 6.7H246c0-1.7-.6-3.2-1.8-4.2-1.2-1.1-2.8-1.6-4.8-1.6s-3.5.4-4.7 1.3c-1.1.8-1.8 2.1-1.7 3.4 0 1.3.5 2.4 1.6 3.2s2.7 1.5 5 2.2c1.8.4 3.6 1.1 5.2 2 1.1.6 2 1.4 2.7 2.4.6.9.9 2 .9 3.3 0 2-.8 3.6-2.4 4.8-1.6 1.2-3.7 1.8-6.4 1.8-1.8 0-3.5-.3-5-1-1.4-.5-2.6-1.5-3.4-2.7-.8-1.2-1.2-2.6-1.2-4h2.2c0 1.8.7 3.2 2 4.3s3.1 1.6 5.4 1.6c2 0 3.6-.4 4.8-1.3 1.1-.9 1.8-2.2 1.7-3.6zm13.4 4.8c1.5 0 2.7-.4 3.7-1.2 1-.8 1.6-2 1.6-3.2h2c-.1 1.1-.4 2.2-1.1 3.2-.7 1-1.6 1.7-2.6 2.2-1.1.5-2.3.8-3.6.8-2.5 0-4.5-.9-5.9-2.6s-2.2-4.1-2.2-7v-.6c0-1.9.3-3.5 1-5 .6-1.4 1.6-2.5 2.8-3.3 1.3-.8 2.8-1.2 4.3-1.2 2.1 0 3.8.6 5.2 1.9 1.4 1.3 2.1 3 2.2 4.9h-2c0-1.4-.6-2.7-1.6-3.6-1-.9-2.3-1.4-3.7-1.4-1.9 0-3.4.7-4.4 2.1-1.1 1.4-1.6 3.3-1.6 5.8v.6c0 2.4.5 4.3 1.6 5.7.9 1.3 2.6 2 4.3 1.9zm10.4-8.3c0-1.8.4-3.5 1.1-4.9.7-1.4 1.7-2.6 3-3.4 1.3-.8 2.9-1.2 4.4-1.2 2.5 0 4.6.9 6.1 2.7 1.6 1.8 2.4 4.1 2.4 7.1v.4c0 1.8-.4 3.5-1.1 5-1.3 2.9-4.2 4.7-7.4 4.6-2.3.1-4.6-.9-6.1-2.7-1.6-1.8-2.4-4.1-2.4-7.1V50zm2.1.5c0 2.3.6 4.1 1.8 5.6 1.1 1.4 2.8 2.2 4.6 2.2 1.9 0 3.4-.7 4.6-2.2 1.2-1.5 1.8-3.4 1.8-5.8V50c0-1.5-.3-2.8-.8-4-.5-1.1-1.3-2.1-2.3-2.8-1-.7-2.2-1-3.3-1-1.9 0-3.4.7-4.6 2.2-1.2 1.5-1.8 3.4-1.8 5.8v.3zm31.4 6.8c-1.3 1.8-3.3 2.8-6.1 2.8-2 0-3.6-.6-4.6-1.8-1.1-1.2-1.6-2.9-1.6-5.2V40.7h2.1v12.1c0 3.6 1.5 5.4 4.4 5.4 3 0 5-1.3 5.8-3.8V40.7h2.1v19h-2l-.1-2.4zm10.8-21.4v4.9h3.9v1.7h-3.9v12.7c0 1 .2 1.8.6 2.3.4.5 1 .8 1.9.8.4 0 .9-.1 1.7-.2l.1 1.7c-.5.2-1.3.3-2.2.3-1.4 0-2.5-.4-3.1-1.3-.6-.8-1-2.1-1-3.7V42.5h-3.5v-1.7h3.5v-4.9h2z" fill-rule="evenodd" clip-rule="evenodd"/><linearGradient id="linearGradient" gradientUnits="userSpaceOnUse" x1="-133.361" y1="461.88" x2="-133.361" y2="460.88" gradientTransform="matrix(80 0 0 -80 10712.292 36956.16)"><stop offset="0" stop-color="#f1cf88"/><stop offset="1" stop-color="#f65a5a"/></linearGradient><path id="Combined-Shape_00000013881437400997376290000015603522497040671116_" d="m3.4 53.8 40 22 40-22v10l-40 22-40-22v-10zm0-48 40 22 40-22v38l-40 22-40-22v-38z" fill="url(#linearGradient)"/></g></g></svg>
